<?xml version="1.0" encoding="UTF-8"?>
<svg version="1.1" xmlns="http://www.w3.org/2000/svg" width="500" height="500">
<rect width="500" height="500" rx="80" fill="#F5F5F5"/>
<path d="M0 0 C0 0.66 0 1.32 0 2 C0.99 2.33 1.98 2.66 3 3 C6 10 6 10 6 28 C54.84 28 103.68 28 154 28 C154 22.06 154 16.12 154 10 C158.7654321 0.4691358 158.7654321 0.4691358 164 -2 C169.15295367 -3.16565918 173.82918815 -3.19326427 179 -2 C179 -1.34 179 -0.68 179 0 C179.86625 0.0928125 179.86625 0.0928125 180.75 0.1875 C183.99553208 1.3594977 185.10440864 3.15661295 187 6 C189.05829992 10.92107622 189.24793914 15.14535805 189.125 20.375 C189.11597656 21.11105469 189.10695313 21.84710938 189.09765625 22.60546875 C189.07430144 24.4037888 189.03843836 26.20193911 189 28 C189.73863281 27.97679688 190.47726562 27.95359375 191.23828125 27.9296875 C198.41794179 27.801968 205.00982564 28.36071132 212 30 C212.83273437 30.19464844 213.66546875 30.38929687 214.5234375 30.58984375 C233.08693283 35.53815717 249.35605437 49.18287567 258.9375 65.6875 C266.33451945 80.32073412 268.1635709 94.04615436 268.12698364 110.3092041 C268.12854363 111.39298293 268.13010362 112.47676175 268.13171089 113.59338236 C268.13567384 117.19573261 268.13254957 120.79804012 268.12939453 124.40039062 C268.13075066 126.99496994 268.13253178 129.58954905 268.13470459 132.18412781 C268.13913562 138.48225417 268.13819771 144.78036857 268.13529195 151.07849538 C268.13302741 156.20018383 268.13272994 161.32186894 268.13381577 166.44355774 C268.133969 167.17436213 268.13412223 167.90516651 268.13428011 168.65811649 C268.13459985 170.14304157 268.13492407 171.62796665 268.1352527 173.11289173 C268.13809968 187.01518417 268.13483274 200.91746999 268.12945233 214.81976134 C268.12498501 226.73124394 268.12576116 238.64271679 268.13037109 250.55419922 C268.13573067 264.40902348 268.13782506 278.26384197 268.13475883 292.11866713 C268.1344403 293.5979255 268.13412593 295.07718388 268.13381577 296.55644226 C268.13366149 297.28413878 268.13350721 298.01183531 268.13334826 298.76158324 C268.13248726 303.87314615 268.133937 308.98470536 268.13629532 314.0962677 C268.13940364 320.98440534 268.13716947 327.87252433 268.13140106 334.76066017 C268.13008189 337.2845386 268.13045324 339.80841857 268.13266373 342.33229637 C268.1354084 345.78515022 268.13195367 349.23794574 268.12698364 352.6907959 C268.12921436 353.68235262 268.13144509 354.67390935 268.13374341 355.69551325 C268.07296423 377.56269816 262.03262387 396.68080022 247 413 C233.84856211 426.00667557 217.84515692 434.44777784 199.42320251 436.10882568 C198.50529684 436.19308044 197.58739117 436.2773352 196.64167017 436.36414313 C186.50357896 437.22502264 176.39657814 437.28149211 166.22875977 437.25878906 C164.14315673 437.26150836 162.05755465 437.26507449 159.97195435 437.26940918 C154.37476728 437.27842457 148.77765504 437.2750342 143.18046689 437.26865101 C137.27980956 437.26353346 131.37915799 437.26829832 125.47850037 437.27142334 C115.5744412 437.27504668 105.67041202 437.27030727 95.76635742 437.26074219 C84.37207369 437.24986384 72.97786159 437.25338537 61.5835796 437.264395 C51.74169864 437.27351825 41.89983904 437.27472859 32.05795521 437.26951766 C26.20572961 437.2664251 20.35353751 437.26591278 14.50131416 437.27259064 C8.99434871 437.27843725 3.48747414 437.27423585 -2.01948166 437.26280212 C-4.02111601 437.26019401 -6.02275822 437.26085315 -8.02438927 437.26532745 C-18.37946338 437.28631136 -28.631787 437.00532096 -38.95082092 436.09320068 C-39.85975583 436.01363451 -40.76869075 435.93406834 -41.70516914 435.85209107 C-60.71485658 434.00326295 -77.76178707 423.56278969 -90 409 C-90 408.34 -90 407.68 -90 407 C-90.66 407 -91.32 407 -92 407 C-104.41938758 390.00216269 -108.17389318 372.31673632 -108.12698364 351.60850525 C-108.12854363 350.52795555 -108.13010362 349.44740585 -108.13171089 348.33411223 C-108.13566839 344.74868749 -108.13255175 341.16330584 -108.12939453 337.57788086 C-108.13075089 334.99300614 -108.13253215 332.40813161 -108.13470459 329.82325745 C-108.13913263 323.55267375 -108.13819911 317.28210208 -108.13529195 311.01151793 C-108.13302642 305.91225997 -108.13273036 300.81300535 -108.13381577 295.71374702 C-108.133969 294.98585349 -108.13412223 294.25795995 -108.13428011 293.50800904 C-108.13459986 292.02896249 -108.13492407 290.54991594 -108.1352527 289.07086939 C-108.13809875 275.22818416 -108.1348341 261.38550556 -108.12945233 247.54282141 C-108.12498415 235.6830853 -108.12576205 223.82335898 -108.13037109 211.96362305 C-108.13573069 198.16629026 -108.13782513 184.36896327 -108.13475883 170.57162958 C-108.13444031 169.09856546 -108.13412593 167.62550134 -108.13381577 166.15243721 C-108.13366149 165.42779979 -108.13350721 164.70316236 -108.13334826 163.95656623 C-108.13248734 158.8670331 -108.13393681 153.77750367 -108.13629532 148.68797112 C-108.13940362 141.8301889 -108.13716949 134.97242541 -108.13140106 128.114645 C-108.13008194 125.60205364 -108.13045316 123.08946071 -108.13266373 120.57686996 C-108.13540856 117.13939625 -108.1319535 113.70198112 -108.12698364 110.26451111 C-108.13032973 108.78403562 -108.13032973 108.78403562 -108.13374341 107.27365154 C-108.06987045 84.39380646 -101.29469413 64.43638712 -85 48 C-68.60145027 33.6012734 -50.41304936 27.67880426 -29 28 C-29.04640625 26.94941406 -29.0928125 25.89882813 -29.140625 24.81640625 C-29.63134676 9.15249291 -29.63134676 9.15249291 -25 3 C-18.33913468 -3.66086532 -8.19705148 -5.12315718 0 0 Z " fill="#1D1D21" transform="translate(170,28)"/>
<path d="M0 0 C1.6603736 -0.00763595 3.32074371 -0.01606587 4.98110962 -0.02522278 C9.46280158 -0.04703279 13.94442538 -0.05594834 18.42616439 -0.06104922 C21.23465691 -0.06470877 24.043132 -0.07095699 26.85161781 -0.07805061 C36.67371011 -0.10249796 46.49574994 -0.11558684 56.31787109 -0.11914062 C65.43435856 -0.12277249 74.55050871 -0.15265505 83.66689318 -0.19454521 C91.5263349 -0.22937741 99.38566549 -0.24469129 107.24518377 -0.24538666 C111.92489601 -0.24617506 116.6042639 -0.25471067 121.28389549 -0.28338432 C125.69103015 -0.3097881 130.09754032 -0.31164761 134.50471878 -0.29572868 C136.10896621 -0.29393178 137.71325145 -0.30044291 139.31741905 -0.31654739 C153.65254968 -0.45152165 168.81726782 1.88742441 180.30786133 11.30639648 C180.30786133 11.96639648 180.30786133 12.62639648 180.30786133 13.30639648 C181.23598633 13.67764648 181.23598633 13.67764648 182.18286133 14.05639648 C184.6585482 15.51268288 185.25911135 16.68452155 186.30786133 19.30639648 C186.96786133 19.30639648 187.62786133 19.30639648 188.30786133 19.30639648 C191.30786133 22.76793495 191.30786133 22.76793495 191.30786133 25.30639648 C191.96786133 25.30639648 192.62786133 25.30639648 193.30786133 25.30639648 C194.40824054 27.34024346 195.48723836 29.38191823 196.55786133 31.43139648 C197.16114258 32.56834961 197.76442383 33.70530273 198.38598633 34.87670898 C204.43620045 48.16889385 204.88435566 60.35721283 204.71948242 74.74829102 C204.68278221 78.06354393 204.67846557 81.37767935 204.67895508 84.69311523 C204.6691275 86.82984352 204.65747207 88.96656435 204.64379883 91.10327148 C204.64157318 92.07955505 204.63934753 93.05583862 204.63705444 94.06170654 C204.51553913 102.9667556 203.08103972 111.02196538 199.74536133 119.30639648 C199.31094727 120.39952148 198.8765332 121.49264648 198.42895508 122.61889648 C197.76867797 124.20172104 197.07484235 125.77243444 196.30786133 127.30639648 C195.64786133 127.30639648 194.98786133 127.30639648 194.30786133 127.30639648 C194.03973633 127.87874023 193.77161133 128.45108398 193.49536133 129.04077148 C192.26653497 131.38524283 190.88263957 133.43044586 189.30786133 135.55639648 C188.79223633 136.26280273 188.27661133 136.96920898 187.74536133 137.69702148 C187.27098633 138.22811523 186.79661133 138.75920898 186.30786133 139.30639648 C185.64786133 139.30639648 184.98786133 139.30639648 184.30786133 139.30639648 C184.10161133 139.88389648 183.89536133 140.46139648 183.68286133 141.05639648 C181.78039483 144.16952348 179.4449124 145.51379587 176.30786133 147.30639648 C175.31786133 147.30639648 174.32786133 147.30639648 173.30786133 147.30639648 C173.30786133 147.96639648 173.30786133 148.62639648 173.30786133 149.30639648 C171.25496709 150.28513766 169.18977561 151.23808659 167.12036133 152.18139648 C165.97180664 152.71506836 164.82325195 153.24874023 163.63989258 153.79858398 C153.17466074 157.87530504 141.59646228 157.60206251 130.53442383 157.58105469 C128.9969661 157.58541353 127.45951053 157.59060053 125.92205811 157.59654236 C121.7856984 157.60981497 117.64943071 157.61052446 113.51305389 157.60797906 C110.04410139 157.60690171 106.57516693 157.61181187 103.10621834 157.61658448 C94.91625719 157.62763819 86.72634193 157.62813991 78.53637695 157.62207031 C70.11969151 157.6160282 61.70317314 157.6283571 53.28651619 157.64964038 C46.02750149 157.66731353 38.76853971 157.67324892 31.50950432 157.67000264 C27.18827636 157.66819937 22.86716771 157.67072997 18.54595947 157.68471718 C14.48117727 157.69738517 10.41665399 157.69526766 6.35187531 157.68230629 C4.87054605 157.67996067 3.38919803 157.68260179 1.90789032 157.69092941 C-10.48096467 157.75549244 -21.87179638 156.07856421 -33.19213867 150.86889648 C-33.8547168 150.58208008 -34.51729492 150.29526367 -35.19995117 149.99975586 C-39.15990491 148.22882037 -42.51942058 146.27776901 -45.69213867 143.30639648 C-45.69213867 142.64639648 -45.69213867 141.98639648 -45.69213867 141.30639648 C-46.55838867 140.95834961 -46.55838867 140.95834961 -47.44213867 140.60327148 C-51.90100695 138.03322935 -54.64002126 133.36117231 -57.69213867 129.30639648 C-58.43463867 128.33702148 -59.17713867 127.36764648 -59.94213867 126.36889648 C-66.34622573 115.16174414 -68.01129816 102.80197726 -67.95776367 90.08374023 C-67.95967712 89.05761124 -67.96159058 88.03148224 -67.96356201 86.97425842 C-67.96491283 84.8221919 -67.96129426 82.67011691 -67.95288086 80.51806641 C-67.94215461 77.24875384 -67.95281986 73.97998928 -67.96557617 70.71069336 C-67.9642546 68.60587445 -67.96169224 66.50105589 -67.95776367 64.39624023 C-67.96181213 63.43241928 -67.9658606 62.46859833 -67.97003174 61.47557068 C-67.91663452 53.64311115 -67.20372197 45.7038944 -63.75463867 38.55639648 C-63.40272461 37.8203418 -63.05081055 37.08428711 -62.68823242 36.32592773 C-62.35952148 35.65948242 -62.03081055 34.99303711 -61.69213867 34.30639648 C-61.23838867 33.29577148 -60.78463867 32.28514648 -60.31713867 31.24389648 C-56.72558902 24.75147981 -52.49316952 19.87316545 -46.69213867 15.30639648 C-45.94963867 14.50202148 -45.20713867 13.69764648 -44.44213867 12.86889648 C-39.65561728 8.40872883 -34.36242476 4.30639648 -27.69213867 4.30639648 C-27.69213867 3.64639648 -27.69213867 2.98639648 -27.69213867 2.30639648 C-18.4605752 0.1412145 -9.41627543 0.00276425 0 0 Z " fill="#2F3238" transform="translate(181.692138671875,154.693603515625)"/>
<path d="M0 0 C0 0.66 0 1.32 0 2 C0.99 2.33 1.98 2.66 3 3 C6 10 6 10 6 28 C54.84 28 103.68 28 154 28 C154 22.06 154 16.12 154 10 C158.7654321 0.4691358 158.7654321 0.4691358 164 -2 C169.15295367 -3.16565918 173.82918815 -3.19326427 179 -2 C179 -1.34 179 -0.68 179 0 C179.5775 0.061875 180.155 0.12375 180.75 0.1875 C183.99553208 1.3594977 185.10440864 3.15661295 187 6 C189.05829992 10.92107622 189.24793914 15.14535805 189.125 20.375 C189.11597656 21.11105469 189.10695313 21.84710938 189.09765625 22.60546875 C189.07430144 24.4037888 189.03843836 26.20193911 189 28 C192.96 28 196.92 28 201 28 C201 28.33 201 28.66 201 29 C196.71 29 192.42 29 188 29 C187.97421875 30.08539063 187.9484375 31.17078125 187.921875 32.2890625 C187.86556262 33.73441349 187.808216 35.17972444 187.75 36.625 C187.73582031 37.33785156 187.72164062 38.05070312 187.70703125 38.78515625 C187.41881336 45.06830616 185.14193771 48.66906779 180.875 53.3125 C176.69290546 55.76720766 172.82403039 56.34300973 168 56 C165.00704474 54.96379166 162.72713459 53.66658225 160 52 C160 51.34 160 50.68 160 50 C159.34 50 158.68 50 158 50 C155 44 155 44 155 29 C105.5 29 56 29 5 29 C5 34.28 5 39.56 5 45 C-0.94674556 53.92011834 -0.94674556 53.92011834 -7.140625 55.5703125 C-12.52818038 56.43158836 -16.25894977 55.95197467 -21 53 C-25.10299175 49.62869301 -27.0004719 46.17493897 -27.59375 40.91796875 C-27.90201013 36.94459281 -27.99032906 32.9844258 -28 29 C-32.29 29 -36.58 29 -41 29 C-41 28.67 -41 28.34 -41 28 C-37.04 28 -33.08 28 -29 28 C-29.04640625 26.94941406 -29.0928125 25.89882813 -29.140625 24.81640625 C-29.63134676 9.15249291 -29.63134676 9.15249291 -25 3 C-18.33913468 -3.66086532 -8.19705148 -5.12315718 0 0 Z " fill="#44474B" transform="translate(170,28)"/>
<path d="M0 0 C7.63114923 -0.51490453 12.81597028 2.5757627 18.5703125 7.34765625 C20.0078125 9.22265625 20.0078125 9.22265625 20.0078125 12.22265625 C20.6678125 12.22265625 21.3278125 12.22265625 22.0078125 12.22265625 C24.52086879 19.98603479 25.49451742 27.01549563 25.3828125 35.16015625 C25.37483643 36.20977539 25.36686035 37.25939453 25.35864258 38.34082031 C25.02479081 56.47869084 25.02479081 56.47869084 19.0078125 63.22265625 C18.3478125 63.22265625 17.6878125 63.22265625 17.0078125 63.22265625 C16.729375 64.11984375 16.729375 64.11984375 16.4453125 65.03515625 C14.285042 68.32252441 11.70643754 69.35092644 8.0078125 70.22265625 C0.87327633 71.05774191 -5.3695747 71.21597054 -11.27734375 66.76953125 C-17.80701846 60.87943743 -20.63099746 55.94743154 -21.1953125 47.00317383 C-21.29711781 43.2615743 -21.3141441 39.52807706 -21.3046875 35.78515625 C-21.32080078 34.51349609 -21.33691406 33.24183594 -21.35351562 31.93164062 C-21.35857181 22.17826387 -20.33160586 13.97083424 -13.9921875 6.22265625 C-9.48270826 2.25130102 -5.93631221 0.66347019 0 0 Z " fill="#101113" transform="translate(312.9921875,197.77734375)"/>
<path d="M0 0 C5.14231895 3.39587101 7.97610438 7.26043961 10 13 C11.28578916 19.58035322 11.22221283 26.06718477 11.25 32.75 C11.270625 33.97460938 11.29125 35.19921875 11.3125 36.4609375 C11.35125045 45.50916817 11.09207315 54.02678467 4.6875 60.9375 C-1.40027323 66.2927196 -6.11976153 67.45709966 -14.1640625 67.21875 C-20.30068734 66.74540153 -24.9345627 64.6883672 -29 60 C-34.82763025 50.89824416 -35.17992458 42.0696056 -35.1875 31.5625 C-35.19974609 30.67240234 -35.21199219 29.78230469 -35.22460938 28.86523438 C-35.24305089 20.4497578 -34.55818716 10.83049444 -28.49609375 4.40625 C-19.71590642 -3.60788072 -10.73155292 -4.85661519 0 0 Z " fill="#101113" transform="translate(197,201)"/>
<path d="M0 0 C0 0.66 0 1.32 0 2 C0.5775 2.061875 1.155 2.12375 1.75 2.1875 C4.99553208 3.3594977 6.10440864 5.15661295 8 8 C10.05829992 12.92107622 10.24793914 17.14535805 10.125 22.375 C10.11597656 23.11105469 10.10695313 23.84710938 10.09765625 24.60546875 C10.07430144 26.4037888 10.03843836 28.20193911 10 30 C13.96 30 17.92 30 22 30 C22 30.33 22 30.66 22 31 C17.71 31 13.42 31 9 31 C8.96132813 32.62808594 8.96132813 32.62808594 8.921875 34.2890625 C8.86556262 35.73441349 8.808216 37.17972444 8.75 38.625 C8.73582031 39.33785156 8.72164063 40.05070312 8.70703125 40.78515625 C8.41881336 47.06830616 6.14193771 50.66906779 1.875 55.3125 C-2.30709454 57.76720766 -6.17596961 58.34300973 -11 58 C-13.99295526 56.96379166 -16.27286541 55.66658225 -19 54 C-19 53.34 -19 52.68 -19 52 C-19.66 52 -20.32 52 -21 52 C-23.74985312 47.29511992 -24.37565668 43.86552247 -24.36328125 38.44140625 C-24.36402901 37.38033913 -24.36402901 37.38033913 -24.36479187 36.2978363 C-24.36246317 34.80945003 -24.35280613 33.32105892 -24.33618164 31.83276367 C-24.31260316 29.57238989 -24.31562804 27.31319995 -24.32226562 25.05273438 C-24.2595026 8.69682569 -24.2595026 8.69682569 -20.0625 3.6875 C-13.56088182 -1.63200578 -7.90260213 -1.14148697 0 0 Z " fill="#373A3E" transform="translate(349,26)"/>
<path d="M0 0 C0 0.66 0 1.32 0 2 C0.99 2.33 1.98 2.66 3 3 C4.4935473 5.9870946 4.30631228 9.0373448 4.375 12.3125 C4.42398438 13.62863281 4.47296875 14.94476563 4.5234375 16.30078125 C3.88374324 20.82160558 2.46709028 22.15698597 -1 25 C-1.33 25.33 -1.66 25.66 -2 26 C-4.24406999 26.20560851 -6.49734963 26.31424387 -8.75 26.375 C-10.59851563 26.44847656 -10.59851563 26.44847656 -12.484375 26.5234375 C-16 26 -16 26 -18.921875 23.9453125 C-21.55351893 20.21550137 -21.60872026 18.03001082 -21.5 13.5 C-21.4896875 12.2109375 -21.479375 10.921875 -21.46875 9.59375 C-20.98501651 5.88512659 -20.27284074 3.93462252 -18 1 C-12.47585786 -1.69783686 -5.85504501 -1.95168167 0 0 Z " fill="#2F3237" transform="translate(202,345)"/>
<path d="M0 0 C1.69140625 1.15625 1.69140625 1.15625 3.69140625 4.15625 C3.95703125 7.1171875 3.95703125 7.1171875 3.94140625 10.53125 C3.9465625 11.65273438 3.95171875 12.77421875 3.95703125 13.9296875 C3.63285776 17.86744194 2.76471276 20.79022353 0.31640625 23.90625 C-3.60676942 26.92407744 -8.55538828 26.50658586 -13.30859375 26.15625 C-16.78661865 25.38335558 -17.92155857 24.6500535 -20.12109375 21.84375 C-22.09163289 15.7247074 -22.48891797 9.21452524 -20.67578125 2.98046875 C-16.83280155 -3.35893477 -6.1018893 -2.23013213 0 0 Z " fill="#2F3236" transform="translate(202.30859375,398.84375)"/>
<path d="M0 0 C2.24973447 -0.054138 4.49984383 -0.09285491 6.75 -0.125 C8.00296875 -0.14820313 9.2559375 -0.17140625 10.546875 -0.1953125 C13.76948618 -0.01303811 15.40356467 0.16793582 18 2 C20.50506123 5.75759185 20.2604463 8.72027577 20.1875 13.0625 C20.18685547 13.79533203 20.18621094 14.52816406 20.18554688 15.28320312 C20.140625 20.71875 20.140625 20.71875 19 23 C18.34 23 17.68 23 17 23 C17 23.66 17 24.32 17 25 C13.99712912 26.50143544 10.916891 26.26574018 7.625 26.3125 C6.95210937 26.34150391 6.27921875 26.37050781 5.5859375 26.40039062 C2.16606841 26.44414879 0.34295047 26.260265 -2.4140625 24.16796875 C-5.05324727 20.56021617 -5.18487683 17.47739835 -5.25 13.125 C-5.28867188 11.58199219 -5.28867188 11.58199219 -5.328125 10.0078125 C-4.95578391 6.59468586 -4.06712665 4.71937535 -2 2 C-1.34 2 -0.68 2 0 2 C0 1.34 0 0.68 0 0 Z " fill="#2F3236" transform="translate(130,398)"/>
<path d="M0 0 C0.86625 -0.00257813 1.7325 -0.00515625 2.625 -0.0078125 C5 0.125 5 0.125 8 1.125 C12.90524538 7.29159419 12.63061761 13.47488478 12 21.125 C11 24.125 11 24.125 8.8125 25.7890625 C5.63089709 27.30032388 3.50598355 27.52683151 0 27.5 C-1.010625 27.50773437 -2.02125 27.51546875 -3.0625 27.5234375 C-6.42194088 27.06776866 -8.31177017 26.16997484 -11 24.125 C-12.22397713 20.45306862 -12.26111238 17.01416441 -12.3125 13.1875 C-12.34150391 12.47142578 -12.37050781 11.75535156 -12.40039062 11.01757812 C-12.44271096 7.50499001 -12.30436374 5.530602 -10.16796875 2.68359375 C-6.78165465 0.24910848 -4.05543995 -0.01206976 0 0 Z " fill="#2F3237" transform="translate(138,343.875)"/>
<path d="M0 0 C2.56506424 -0.16276553 5.11975422 -0.28113984 7.6875 -0.375 C8.7693457 -0.45041016 8.7693457 -0.45041016 9.87304688 -0.52734375 C14.19339525 -0.64570946 15.57814822 -0.36033173 19 2.5625 C21.32660572 6.56135359 21.52863966 8.79283916 21.3125 13.375 C21.24482422 15.24285156 21.24482422 15.24285156 21.17578125 17.1484375 C21.11777344 18.08945312 21.05976563 19.03046875 21 20 C20.34 20 19.68 20 19 20 C18.87625 20.928125 18.87625 20.928125 18.75 21.875 C18 24 18 24 16.375 25.125 C13.24086056 26.27968295 10.58073613 26.19161472 7.25 26.125 C5.49429687 26.09792969 5.49429687 26.09792969 3.703125 26.0703125 C2.81109375 26.04710937 1.9190625 26.02390625 1 26 C1 25.34 1 24.68 1 24 C0.01 23.67 -0.98 23.34 -2 23 C-4.36543381 19.45184929 -4.26923313 17.82743868 -4.25 13.625 C-4.25515625 12.50351562 -4.2603125 11.38203125 -4.265625 10.2265625 C-4.00575269 7.06987823 -3.34320698 4.84631955 -2 2 C-1.34 2 -0.68 2 0 2 C0 1.34 0 0.68 0 0 Z " fill="#303237" transform="translate(298,345)"/>
<path d="M0 0 C1.18916016 0.02707031 1.18916016 0.02707031 2.40234375 0.0546875 C4.35208348 0.10166918 6.30119878 0.17340956 8.25 0.25 C10.43360123 4.8476617 11.65030622 8.20118752 11.5625 13.375 C11.55863281 14.36757813 11.55476563 15.36015625 11.55078125 16.3828125 C11.23171298 19.42432046 10.71393173 21.56380145 9.25 24.25 C6.00866273 26.68836963 2.7050664 26.54889312 -1.25 26.5625 C-2.93609375 26.58763672 -2.93609375 26.58763672 -4.65625 26.61328125 C-8.04777532 26.21503396 -9.40526624 25.69980438 -11.75 23.25 C-13.27204975 19.66870648 -12.99076165 15.58611373 -13.0625 11.75 C-13.09988281 10.4403125 -13.13726562 9.130625 -13.17578125 7.78125 C-12.75 4.25 -12.75 4.25 -11.27734375 1.796875 C-7.54772354 -0.48586009 -4.27892476 -0.18449759 0 0 Z " fill="#303237" transform="translate(250.75,344.75)"/>
<path d="M0 0 C1.24394531 -0.01417969 2.48789063 -0.02835937 3.76953125 -0.04296875 C8.74633547 0.29261005 8.74633547 0.29261005 11.1875 2.1875 C13.36544487 6.08414259 13.54420981 9.77730595 13.625 14.1875 C13.66496094 15.38375 13.70492188 16.58 13.74609375 17.8125 C13.1875 21.1875 13.1875 21.1875 11.13671875 24.09375 C7.37783429 26.76230903 5.13545534 26.79573563 0.5625 26.6875 C-1.40589844 26.67203125 -1.40589844 26.67203125 -3.4140625 26.65625 C-6.8125 26.1875 -6.8125 26.1875 -8.7109375 24.90625 C-11.98282576 19.80117612 -11.27050092 13.00178287 -10.8125 7.1875 C-8.16624473 0.39927997 -7.09359448 0.03652726 0 0 Z " fill="#303237" transform="translate(248.8125,397.8125)"/>
<path d="M0 0 C2.39706123 -0.10854617 4.78915838 -0.18753157 7.1875 -0.25 C7.86103516 -0.28351563 8.53457031 -0.31703125 9.22851562 -0.3515625 C12.67852587 -0.41887977 14.89415103 -0.05557769 17.9609375 1.5546875 C20.76269453 4.91464899 20.57131979 7.04959913 20.4375 11.375 C20.41558594 12.66148437 20.39367187 13.94796875 20.37109375 15.2734375 C20.01172402 18.88226618 19.55066254 21.72032397 18 25 C16.28125 25.8515625 16.28125 25.8515625 14 26 C12.9790625 26.09023438 11.958125 26.18046875 10.90625 26.2734375 C9.22015625 26.32371094 9.22015625 26.32371094 7.5 26.375 C5.81390625 26.44847656 5.81390625 26.44847656 4.09375 26.5234375 C1 26 1 26 -1.34375 23.6015625 C-3.78502798 19.7669136 -4.15945141 17.73698131 -4.1875 13.1875 C-4.20167969 12.14980469 -4.21585937 11.11210937 -4.23046875 10.04296875 C-3.99714427 6.96229467 -3.30118886 4.78238408 -2 2 C-1.34 2 -0.68 2 0 2 C0 1.34 0 0.68 0 0 Z " fill="#303237" transform="translate(354,345)"/>
<path d="M0 0 C48.51 0 97.02 0 147 0 C147 4.62 147 9.24 147 14 C146.01 14.99 145.02 15.98 144 17 C144 11.72 144 6.44 144 1 C96.48 1 48.96 1 0 1 C0 0.67 0 0.34 0 0 Z " fill="#121315" transform="translate(178,57)"/>
<path d="M0 0 C1.74271938 2.297221 3.39911152 4.59866729 5 7 C4.67 7.99 4.34 8.98 4 10 C1.9375 10.6875 1.9375 10.6875 0 11 C-1.76062164 7.67438135 -2.10784228 6.40826005 -1.125 2.6875 C-0.568125 1.3571875 -0.568125 1.3571875 0 0 Z " fill="#4F4F51" transform="translate(426,91)"/>
<path d="M0 0 C0.99 0.66 1.98 1.32 3 2 C-2.75 7 -2.75 7 -5 7 C-5.33 5.35 -5.66 3.7 -6 2 C-5.34 1.67 -4.68 1.34 -4 1 C-1.875 1.9375 -1.875 1.9375 0 3 C0 2.01 0 1.02 0 0 Z " fill="#565558" transform="translate(408,444)"/>
<path d="M0 0 C0.33 0.99 0.66 1.98 1 3 C-3.625 6 -3.625 6 -7 6 C-5.52522876 2.59668175 -4.14385429 0 0 0 Z " fill="#7C7E81" transform="translate(152,27)"/>
<path d="M0 0 C1.98 0 3.96 0 6 0 C6 1.65 6 3.3 6 5 C4.68 4.67 3.36 4.34 2 4 C2 3.01 2 2.02 2 1 C1.34 0.67 0.68 0.34 0 0 Z " fill="#121317" transform="translate(136,57)"/>
<path d="M0 0 C0.625 1.8125 0.625 1.8125 1 4 C0.01 5.485 0.01 5.485 -1 7 C-1.99 7 -2.98 7 -4 7 C-3.6875 4.625 -3.6875 4.625 -3 2 C-2.01 1.34 -1.02 0.68 0 0 Z " fill="#484B4F" transform="translate(147,31)"/>
<path d="M0 0 C0.66 0.33 1.32 0.66 2 1 C-0.12055614 4.1808342 -1.63050557 5.31525278 -5 7 C-5.66 6.67 -6.32 6.34 -7 6 C-4.69 4.02 -2.38 2.04 0 0 Z " fill="#949596" transform="translate(94,69)"/>
</svg>
